<svg xmlns="http://www.w3.org/2000/svg">
  <symbol id="progress" viewBox="0 0 24 24" fill="none">
    <path d="M3.25 12s3.05-5.35 8.75-5.35S20.75 12 20.75 12 17.7 17.35 12 17.35 3.25 12 3.25 12Z" fill="currentColor" opacity=".1"/>
    <path d="M3.25 12s3.05-5.35 8.75-5.35S20.75 12 20.75 12 17.7 17.35 12 17.35 3.25 12 3.25 12Z" stroke="currentColor" stroke-width="1.55" stroke-linejoin="round"/>
    <path d="M11.35 8.75c-1.2 1.55-1.8 2.4-1.8 3.45a2.45 2.45 0 0 0 4.9 0c0-1.05-.6-1.9-1.8-3.45a.83.83 0 0 0-1.3 0Z" fill="currentColor" opacity=".24"/>
    <path d="M11.35 8.75c-1.2 1.55-1.8 2.4-1.8 3.45a2.45 2.45 0 0 0 4.9 0c0-1.05-.6-1.9-1.8-3.45a.83.83 0 0 0-1.3 0Z" stroke="currentColor" stroke-width="1.35"/>
  </symbol>
  <symbol id="product-add" viewBox="0 0 24 24" fill="none">
    <path d="M8.2 4h5.4v3H8.2V4Z" fill="currentColor" opacity=".16"/>
    <path d="M8.2 4h5.4v3H8.2V4Zm1.35 0V2.8h5.2" stroke="currentColor" stroke-width="1.5" stroke-linecap="round" stroke-linejoin="round"/>
    <path d="M7.15 7h7.5c.94 0 1.7.76 1.7 1.7v9.1c0 .94-.76 1.7-1.7 1.7h-7.5c-.94 0-1.7-.76-1.7-1.7V8.7c0-.94.76-1.7 1.7-1.7Z" fill="currentColor" opacity=".1"/>
    <path d="M7.15 7h7.5c.94 0 1.7.76 1.7 1.7v9.1c0 .94-.76 1.7-1.7 1.7h-7.5c-.94 0-1.7-.76-1.7-1.7V8.7c0-.94.76-1.7 1.7-1.7Z" stroke="currentColor" stroke-width="1.55"/>
    <path d="M8.2 14.5h5.4M18.9 7.1v4.2M16.8 9.2H21" stroke="currentColor" stroke-width="1.55" stroke-linecap="round"/>
  </symbol>
  <symbol id="routine-add" viewBox="0 0 24 24" fill="none">
    <path d="M4.3 6.3h8.8M6.7 12h8.8M4.3 17.7h8.8" stroke="currentColor" stroke-width="1.55" stroke-linecap="round"/>
    <circle cx="15.25" cy="6.3" r="1.65" fill="currentColor" opacity=".18"/>
    <circle cx="4.55" cy="12" r="1.65" fill="currentColor" opacity=".18"/>
    <circle cx="15.25" cy="17.7" r="1.65" fill="currentColor" opacity=".18"/>
    <circle cx="15.25" cy="6.3" r="1.65" stroke="currentColor" stroke-width="1.35"/>
    <circle cx="4.55" cy="12" r="1.65" stroke="currentColor" stroke-width="1.35"/>
    <circle cx="15.25" cy="17.7" r="1.65" stroke="currentColor" stroke-width="1.35"/>
    <path d="M19 10.1v4.2M16.9 12.2h4.2" stroke="currentColor" stroke-width="1.6" stroke-linecap="round"/>
  </symbol>
</svg>
