<svg xmlns="http://www.w3.org/2000/svg" viewBox="0 0 500.1 99.4"><title>logo icon</title><path d="M500 63.9h-34v33.3h-19.2v-33h-33.7V45.4h33.2V11.9h19.5v33.7h34.3c-.1 6.1-.1 12.2-.1 18.3zM42.8 97.1c18.9-.1 34.1-10.9 38.7-29.2 2.3-9 2.8-18.8 2.3-28.2C82.6 16.2 64.9.1 41.4 0H5.5C3.7 0 1.9.2 0 .3v96.8h42.8zm14.4-68.7c7.7 12.8 8 27.1.6 40.2-8.1 14.3-22.6 10-35.8 10.7V18.1c12.8.4 27.1-3.1 35.2 10.3zm195.7 20.3c1.3-.1 3.2-1.7 3.7-3 2.7-6.2 5.9-8.2 12.9-7.6 6.9.6 9.4 3 9.8 8.7.4 6.4-4.1 7.3-8.8 8.1-7.6 1.4-15.4 2.3-22.8 4.4-9.7 2.8-14 9.8-13.6 19.8s5.8 16.8 15.6 19.1c10.8 2.6 21 1.1 29.9-6.1 2.5 5.8 10.2 7.3 20.9 4.5-.4-4.3-.9-8.6-1.1-12.9-.2-4.6 0-9.1 0-13.7 0-8.2.2-16.4-.1-24.5-.3-10.5-4.8-17.2-14.9-18.7-9.8-1.4-20.1-1.6-29.8 0-11.6 1.9-17.6 10.3-17.9 22 5.6.1 10.9.3 16.2-.1zM279 74.2c-1.3 10-11.3 15.2-20.5 10.9-4.9-2.3-6.3-9.4-2.1-13.4 2.3-2.2 5.7-3.6 8.8-4.5 4.3-1.3 8.8-1.8 13.8-2.7 0 3.4.4 6.6 0 9.7zM204.2 7.3c0 20.3.1 40.7-.1 61-.1 9.3-3.7 13.3-11.2 13.3-7.8 0-11.8-4.3-12.2-13.3-.1-2.2 0-4.4 0-6.9h-19.5v10.4c.1 12.7 6.9 22.4 19 26 4.6 1.4 9.7 1.5 14.6 1.5 20.5.1 31.2-10.7 31.2-31.3V6.4c0-2-.2-4-.3-6.1h-21.6c.1 2.5.1 4.7.1 7zm203.9 19.5c-3.8 0-7.4-.2-10.9 0-3.4.2-4.8-1.1-4.6-4.6.2-5.4.1-10.9.1-16.4h-20.1v20.6c-4.2.2-7.7.5-11.2.7v15.1h11.3c0 13.6-.1 26.5 0 39.4.1 9.2 3.7 14.7 12.3 15.8 7.5 1 15.3.2 23.2.2V83.2h-6c-7.6.2-9.3-1.5-9.4-9.3-.1-6.7 0-13.3 0-20V41.8h15.5c-.2-5-.2-9.6-.2-15zm-97.9.4v69.9h19.5v-9c.2-9.5-.1-19 .7-28.4 1-10.8 7.9-16.4 18.8-16.5h7V33c0-8.4-1.3-9.5-9.6-7.6-2.9.7-5.9 1.8-8.3 3.5-3.2 2.2-5.8 5.1-9.1 8-.2-3.4-.4-6.3-.6-9.7h-18.4zm-169.5 3.1c.4-4.4-1.5-5.6-5.6-5.4-9 .4-15.6 5-21.3 12.8-.4-4.2-.6-7.3-.9-10.4H94.6v69.9h18.7c.3-.8.6-1.1.6-1.5.1-9.7.1-19.4.2-29.1.2-16.9 7.4-25.1 23.9-23.2.5.1 1.1-.1 2.6-.4 0-4.4-.3-8.6.1-12.7zm9.3 66.9V78.8h-19.1v18.4H150z"/></svg>